<mxfile host="Electron" modified="2024-02-27T12:44:53.683Z" agent="Mozilla/5.0 (X11; Linux x86_64) AppleWebKit/537.36 (KHTML, like Gecko) draw.io/21.4.0 Chrome/112.0.5615.204 Electron/24.5.1 Safari/537.36" etag="uCx0ccveg7ex2bYVJIFt" version="21.4.0" type="device" pages="9">
  <diagram name="码key" id="xT8oFVJp8TGKScVScg1j">
    <mxGraphModel dx="954" dy="663" grid="1" gridSize="10" guides="1" tooltips="1" connect="1" arrows="1" fold="1" page="1" pageScale="1" pageWidth="850" pageHeight="1100" math="0" shadow="0">
      <root>
        <mxCell id="0" />
        <mxCell id="1" parent="0" />
        <mxCell id="1q0PFT9TLgkvpIosihsk-1" value="" style="ellipse;whiteSpace=wrap;html=1;strokeWidth=2;fillColor=#FFE6CC;" parent="1" vertex="1">
          <mxGeometry x="230" y="140" width="280" height="150" as="geometry" />
        </mxCell>
        <mxCell id="1q0PFT9TLgkvpIosihsk-2" value="" style="ellipse;whiteSpace=wrap;html=1;strokeWidth=2;fillColor=#FFCC99;" parent="1" vertex="1">
          <mxGeometry x="310" y="160" width="200" height="110" as="geometry" />
        </mxCell>
        <mxCell id="1q0PFT9TLgkvpIosihsk-3" value="" style="ellipse;whiteSpace=wrap;html=1;strokeWidth=2;fillColor=#FFB366;" parent="1" vertex="1">
          <mxGeometry x="420" y="185" width="90" height="60" as="geometry" />
        </mxCell>
        <mxCell id="1q0PFT9TLgkvpIosihsk-4" value="&lt;b&gt;超码&lt;/b&gt;" style="text;html=1;strokeColor=none;fillColor=none;align=center;verticalAlign=middle;whiteSpace=wrap;rounded=0;" parent="1" vertex="1">
          <mxGeometry x="250" y="200" width="60" height="30" as="geometry" />
        </mxCell>
        <mxCell id="1q0PFT9TLgkvpIosihsk-5" value="&lt;b&gt;候选码&lt;/b&gt;" style="text;html=1;strokeColor=none;fillColor=none;align=center;verticalAlign=middle;whiteSpace=wrap;rounded=0;" parent="1" vertex="1">
          <mxGeometry x="340" y="200" width="60" height="30" as="geometry" />
        </mxCell>
        <mxCell id="1q0PFT9TLgkvpIosihsk-6" value="&lt;b&gt;主码&lt;/b&gt;" style="text;html=1;strokeColor=none;fillColor=none;align=center;verticalAlign=middle;whiteSpace=wrap;rounded=0;" parent="1" vertex="1">
          <mxGeometry x="435" y="200" width="60" height="30" as="geometry" />
        </mxCell>
        <mxCell id="1q0PFT9TLgkvpIosihsk-7" value="" style="endArrow=openThin;html=1;rounded=0;endFill=0;dashed=1;strokeWidth=2;strokeColor=#999999;" parent="1" edge="1">
          <mxGeometry width="50" height="50" relative="1" as="geometry">
            <mxPoint x="300" y="214.31" as="sourcePoint" />
            <mxPoint x="340" y="214.31" as="targetPoint" />
          </mxGeometry>
        </mxCell>
        <mxCell id="1q0PFT9TLgkvpIosihsk-9" value="" style="endArrow=openThin;html=1;rounded=0;endFill=0;dashed=1;strokeWidth=2;strokeColor=#999999;" parent="1" edge="1">
          <mxGeometry width="50" height="50" relative="1" as="geometry">
            <mxPoint x="400" y="214.66" as="sourcePoint" />
            <mxPoint x="440" y="214.66" as="targetPoint" />
          </mxGeometry>
        </mxCell>
        <mxCell id="1q0PFT9TLgkvpIosihsk-10" value="设计者选中" style="text;html=1;strokeColor=none;fillColor=none;align=center;verticalAlign=middle;whiteSpace=wrap;rounded=0;fontColor=#999999;" parent="1" vertex="1">
          <mxGeometry x="425" y="215" width="80" height="30" as="geometry" />
        </mxCell>
        <mxCell id="1q0PFT9TLgkvpIosihsk-13" value="任意真子集&lt;br&gt;都不是超码" style="text;html=1;strokeColor=none;fillColor=none;align=center;verticalAlign=middle;whiteSpace=wrap;rounded=0;fontColor=#999999;" parent="1" vertex="1">
          <mxGeometry x="330" y="218" width="80" height="30" as="geometry" />
        </mxCell>
      </root>
    </mxGraphModel>
  </diagram>
  <diagram id="KsW1DEC3zNk5XZJtVyaO" name="模式图">
    <mxGraphModel dx="954" dy="663" grid="1" gridSize="10" guides="1" tooltips="1" connect="1" arrows="1" fold="1" page="1" pageScale="1" pageWidth="850" pageHeight="1100" math="0" shadow="0">
      <root>
        <mxCell id="0" />
        <mxCell id="1" parent="0" />
        <mxCell id="9F9Pi4RutsbHbQT7JTEk-5" value="employee" style="shape=table;startSize=30;container=1;collapsible=0;childLayout=tableLayout;fontStyle=1" parent="1" vertex="1">
          <mxGeometry x="100" y="200" width="110" height="122" as="geometry" />
        </mxCell>
        <mxCell id="9F9Pi4RutsbHbQT7JTEk-6" value="" style="shape=tableRow;horizontal=0;startSize=0;swimlaneHead=0;swimlaneBody=0;strokeColor=inherit;top=0;left=0;bottom=0;right=0;collapsible=0;dropTarget=0;fillColor=none;points=[[0,0.5],[1,0.5]];portConstraint=eastwest;" parent="9F9Pi4RutsbHbQT7JTEk-5" vertex="1">
          <mxGeometry y="30" width="110" height="22" as="geometry" />
        </mxCell>
        <mxCell id="9F9Pi4RutsbHbQT7JTEk-7" value="emp_id" style="shape=partialRectangle;html=1;whiteSpace=wrap;connectable=0;strokeColor=inherit;overflow=hidden;fillColor=none;top=0;left=0;bottom=0;right=0;pointerEvents=1;align=left;" parent="9F9Pi4RutsbHbQT7JTEk-6" vertex="1">
          <mxGeometry width="110" height="22" as="geometry">
            <mxRectangle width="110" height="22" as="alternateBounds" />
          </mxGeometry>
        </mxCell>
        <mxCell id="9F9Pi4RutsbHbQT7JTEk-8" value="" style="shape=tableRow;horizontal=0;startSize=0;swimlaneHead=0;swimlaneBody=0;strokeColor=inherit;top=0;left=0;bottom=0;right=0;collapsible=0;dropTarget=0;fillColor=none;points=[[0,0.5],[1,0.5]];portConstraint=eastwest;" parent="9F9Pi4RutsbHbQT7JTEk-5" vertex="1">
          <mxGeometry y="52" width="110" height="26" as="geometry" />
        </mxCell>
        <mxCell id="9F9Pi4RutsbHbQT7JTEk-9" value="emp_name" style="shape=partialRectangle;html=1;whiteSpace=wrap;connectable=0;strokeColor=inherit;overflow=hidden;fillColor=none;top=0;left=0;bottom=0;right=0;pointerEvents=1;align=left;" parent="9F9Pi4RutsbHbQT7JTEk-8" vertex="1">
          <mxGeometry width="110" height="26" as="geometry">
            <mxRectangle width="110" height="26" as="alternateBounds" />
          </mxGeometry>
        </mxCell>
        <mxCell id="9F9Pi4RutsbHbQT7JTEk-10" value="" style="shape=tableRow;horizontal=0;startSize=0;swimlaneHead=0;swimlaneBody=0;strokeColor=inherit;top=0;left=0;bottom=0;right=0;collapsible=0;dropTarget=0;fillColor=none;points=[[0,0.5],[1,0.5]];portConstraint=eastwest;" parent="9F9Pi4RutsbHbQT7JTEk-5" vertex="1">
          <mxGeometry y="78" width="110" height="22" as="geometry" />
        </mxCell>
        <mxCell id="9F9Pi4RutsbHbQT7JTEk-11" value="dep_id" style="shape=partialRectangle;html=1;whiteSpace=wrap;connectable=0;strokeColor=inherit;overflow=hidden;fillColor=none;top=0;left=0;bottom=0;right=0;pointerEvents=1;align=left;" parent="9F9Pi4RutsbHbQT7JTEk-10" vertex="1">
          <mxGeometry width="110" height="22" as="geometry">
            <mxRectangle width="110" height="22" as="alternateBounds" />
          </mxGeometry>
        </mxCell>
        <mxCell id="9F9Pi4RutsbHbQT7JTEk-12" value="" style="shape=tableRow;horizontal=0;startSize=0;swimlaneHead=0;swimlaneBody=0;strokeColor=inherit;top=0;left=0;bottom=0;right=0;collapsible=0;dropTarget=0;fillColor=none;points=[[0,0.5],[1,0.5]];portConstraint=eastwest;" parent="9F9Pi4RutsbHbQT7JTEk-5" vertex="1">
          <mxGeometry y="100" width="110" height="22" as="geometry" />
        </mxCell>
        <mxCell id="9F9Pi4RutsbHbQT7JTEk-13" value="salary" style="shape=partialRectangle;html=1;whiteSpace=wrap;connectable=0;strokeColor=inherit;overflow=hidden;fillColor=none;top=0;left=0;bottom=0;right=0;pointerEvents=1;align=left;" parent="9F9Pi4RutsbHbQT7JTEk-12" vertex="1">
          <mxGeometry width="110" height="22" as="geometry">
            <mxRectangle width="110" height="22" as="alternateBounds" />
          </mxGeometry>
        </mxCell>
        <mxCell id="9F9Pi4RutsbHbQT7JTEk-14" value="department" style="shape=table;startSize=30;container=1;collapsible=0;childLayout=tableLayout;fontStyle=1" parent="1" vertex="1">
          <mxGeometry x="320" y="200" width="110" height="78" as="geometry" />
        </mxCell>
        <mxCell id="9F9Pi4RutsbHbQT7JTEk-15" value="" style="shape=tableRow;horizontal=0;startSize=0;swimlaneHead=0;swimlaneBody=0;strokeColor=inherit;top=0;left=0;bottom=0;right=0;collapsible=0;dropTarget=0;fillColor=none;points=[[0,0.5],[1,0.5]];portConstraint=eastwest;" parent="9F9Pi4RutsbHbQT7JTEk-14" vertex="1">
          <mxGeometry y="30" width="110" height="22" as="geometry" />
        </mxCell>
        <mxCell id="9F9Pi4RutsbHbQT7JTEk-16" value="dep_id" style="shape=partialRectangle;html=1;whiteSpace=wrap;connectable=0;strokeColor=inherit;overflow=hidden;fillColor=none;top=0;left=0;bottom=0;right=0;pointerEvents=1;align=left;" parent="9F9Pi4RutsbHbQT7JTEk-15" vertex="1">
          <mxGeometry width="110" height="22" as="geometry">
            <mxRectangle width="110" height="22" as="alternateBounds" />
          </mxGeometry>
        </mxCell>
        <mxCell id="9F9Pi4RutsbHbQT7JTEk-17" value="" style="shape=tableRow;horizontal=0;startSize=0;swimlaneHead=0;swimlaneBody=0;strokeColor=inherit;top=0;left=0;bottom=0;right=0;collapsible=0;dropTarget=0;fillColor=none;points=[[0,0.5],[1,0.5]];portConstraint=eastwest;" parent="9F9Pi4RutsbHbQT7JTEk-14" vertex="1">
          <mxGeometry y="52" width="110" height="26" as="geometry" />
        </mxCell>
        <mxCell id="9F9Pi4RutsbHbQT7JTEk-18" value="dep_name" style="shape=partialRectangle;html=1;whiteSpace=wrap;connectable=0;strokeColor=inherit;overflow=hidden;fillColor=none;top=0;left=0;bottom=0;right=0;pointerEvents=1;align=left;" parent="9F9Pi4RutsbHbQT7JTEk-17" vertex="1">
          <mxGeometry width="110" height="26" as="geometry">
            <mxRectangle width="110" height="26" as="alternateBounds" />
          </mxGeometry>
        </mxCell>
        <mxCell id="9F9Pi4RutsbHbQT7JTEk-23" value="" style="endArrow=none;html=1;rounded=0;" parent="1" edge="1">
          <mxGeometry width="50" height="50" relative="1" as="geometry">
            <mxPoint x="322" y="249" as="sourcePoint" />
            <mxPoint x="362" y="249" as="targetPoint" />
          </mxGeometry>
        </mxCell>
        <mxCell id="9F9Pi4RutsbHbQT7JTEk-24" value="" style="endArrow=none;html=1;rounded=0;" parent="1" edge="1">
          <mxGeometry width="50" height="50" relative="1" as="geometry">
            <mxPoint x="102" y="249" as="sourcePoint" />
            <mxPoint x="142" y="249" as="targetPoint" />
          </mxGeometry>
        </mxCell>
        <mxCell id="9F9Pi4RutsbHbQT7JTEk-25" style="edgeStyle=orthogonalEdgeStyle;rounded=0;orthogonalLoop=1;jettySize=auto;html=1;exitX=1;exitY=0.5;exitDx=0;exitDy=0;entryX=0;entryY=0.5;entryDx=0;entryDy=0;endArrow=blockThin;endFill=1;" parent="1" source="9F9Pi4RutsbHbQT7JTEk-10" target="9F9Pi4RutsbHbQT7JTEk-15" edge="1">
          <mxGeometry relative="1" as="geometry" />
        </mxCell>
      </root>
    </mxGraphModel>
  </diagram>
  <diagram id="gmjbl8wQTpkCaE25_L18" name="E-R实体集和联系集">
    <mxGraphModel dx="954" dy="663" grid="1" gridSize="10" guides="1" tooltips="1" connect="1" arrows="1" fold="1" page="1" pageScale="1" pageWidth="850" pageHeight="1100" math="0" shadow="0">
      <root>
        <mxCell id="0" />
        <mxCell id="1" parent="0" />
        <mxCell id="KDw2PLHoL-oaDUTfAiRD-18" value="instructor" style="swimlane;fontStyle=1;align=center;verticalAlign=top;childLayout=stackLayout;horizontal=1;startSize=26;horizontalStack=0;resizeParent=1;resizeParentMax=0;resizeLast=0;collapsible=1;marginBottom=0;whiteSpace=wrap;html=1;fillColor=#f5f5f5;fontColor=#333333;strokeColor=#666666;" parent="1" vertex="1">
          <mxGeometry x="80" y="240" width="160" height="104" as="geometry" />
        </mxCell>
        <mxCell id="KDw2PLHoL-oaDUTfAiRD-19" value="id" style="text;align=left;verticalAlign=top;spacingLeft=4;spacingRight=4;overflow=hidden;rotatable=0;points=[[0,0.5],[1,0.5]];portConstraint=eastwest;whiteSpace=wrap;html=1;" parent="KDw2PLHoL-oaDUTfAiRD-18" vertex="1">
          <mxGeometry y="26" width="160" height="26" as="geometry" />
        </mxCell>
        <mxCell id="KDw2PLHoL-oaDUTfAiRD-29" value="" style="endArrow=none;html=1;rounded=0;" parent="KDw2PLHoL-oaDUTfAiRD-18" edge="1">
          <mxGeometry width="50" height="50" relative="1" as="geometry">
            <mxPoint x="2" y="48" as="sourcePoint" />
            <mxPoint x="22" y="48" as="targetPoint" />
          </mxGeometry>
        </mxCell>
        <mxCell id="KDw2PLHoL-oaDUTfAiRD-21" value="name" style="text;align=left;verticalAlign=top;spacingLeft=4;spacingRight=4;overflow=hidden;rotatable=0;points=[[0,0.5],[1,0.5]];portConstraint=eastwest;whiteSpace=wrap;html=1;" parent="KDw2PLHoL-oaDUTfAiRD-18" vertex="1">
          <mxGeometry y="52" width="160" height="26" as="geometry" />
        </mxCell>
        <mxCell id="KDw2PLHoL-oaDUTfAiRD-22" value="salary" style="text;align=left;verticalAlign=top;spacingLeft=4;spacingRight=4;overflow=hidden;rotatable=0;points=[[0,0.5],[1,0.5]];portConstraint=eastwest;whiteSpace=wrap;html=1;" parent="KDw2PLHoL-oaDUTfAiRD-18" vertex="1">
          <mxGeometry y="78" width="160" height="26" as="geometry" />
        </mxCell>
        <mxCell id="KDw2PLHoL-oaDUTfAiRD-23" value="student" style="swimlane;fontStyle=1;align=center;verticalAlign=top;childLayout=stackLayout;horizontal=1;startSize=26;horizontalStack=0;resizeParent=1;resizeParentMax=0;resizeLast=0;collapsible=1;marginBottom=0;whiteSpace=wrap;html=1;fillColor=#f5f5f5;fontColor=#333333;strokeColor=#666666;" parent="1" vertex="1">
          <mxGeometry x="440" y="240" width="160" height="104" as="geometry" />
        </mxCell>
        <mxCell id="KDw2PLHoL-oaDUTfAiRD-24" value="id" style="text;align=left;verticalAlign=top;spacingLeft=4;spacingRight=4;overflow=hidden;rotatable=0;points=[[0,0.5],[1,0.5]];portConstraint=eastwest;whiteSpace=wrap;html=1;" parent="KDw2PLHoL-oaDUTfAiRD-23" vertex="1">
          <mxGeometry y="26" width="160" height="26" as="geometry" />
        </mxCell>
        <mxCell id="KDw2PLHoL-oaDUTfAiRD-28" value="" style="endArrow=none;html=1;rounded=0;" parent="KDw2PLHoL-oaDUTfAiRD-23" edge="1">
          <mxGeometry width="50" height="50" relative="1" as="geometry">
            <mxPoint x="2" y="48.60000000000002" as="sourcePoint" />
            <mxPoint x="22" y="48.60000000000002" as="targetPoint" />
          </mxGeometry>
        </mxCell>
        <mxCell id="KDw2PLHoL-oaDUTfAiRD-25" value="name" style="text;align=left;verticalAlign=top;spacingLeft=4;spacingRight=4;overflow=hidden;rotatable=0;points=[[0,0.5],[1,0.5]];portConstraint=eastwest;whiteSpace=wrap;html=1;" parent="KDw2PLHoL-oaDUTfAiRD-23" vertex="1">
          <mxGeometry y="52" width="160" height="26" as="geometry" />
        </mxCell>
        <mxCell id="KDw2PLHoL-oaDUTfAiRD-26" value="tot_cred" style="text;align=left;verticalAlign=top;spacingLeft=4;spacingRight=4;overflow=hidden;rotatable=0;points=[[0,0.5],[1,0.5]];portConstraint=eastwest;whiteSpace=wrap;html=1;" parent="KDw2PLHoL-oaDUTfAiRD-23" vertex="1">
          <mxGeometry y="78" width="160" height="26" as="geometry" />
        </mxCell>
        <mxCell id="KDw2PLHoL-oaDUTfAiRD-27" value="advisor" style="rhombus;whiteSpace=wrap;html=1;fillColor=#f5f5f5;fontColor=#333333;strokeColor=#666666;" parent="1" vertex="1">
          <mxGeometry x="290" y="257" width="100" height="70" as="geometry" />
        </mxCell>
        <mxCell id="KDw2PLHoL-oaDUTfAiRD-31" value="" style="endArrow=none;html=1;rounded=0;" parent="1" edge="1">
          <mxGeometry width="50" height="50" relative="1" as="geometry">
            <mxPoint x="240" y="291.58" as="sourcePoint" />
            <mxPoint x="290" y="291.58" as="targetPoint" />
          </mxGeometry>
        </mxCell>
        <mxCell id="KDw2PLHoL-oaDUTfAiRD-32" value="" style="endArrow=none;html=1;rounded=0;" parent="1" edge="1">
          <mxGeometry width="50" height="50" relative="1" as="geometry">
            <mxPoint x="390" y="291.58" as="sourcePoint" />
            <mxPoint x="440" y="291.58" as="targetPoint" />
          </mxGeometry>
        </mxCell>
        <mxCell id="KDw2PLHoL-oaDUTfAiRD-33" value="实体集" style="text;html=1;strokeColor=none;fillColor=none;align=center;verticalAlign=middle;whiteSpace=wrap;rounded=0;fontStyle=1" parent="1" vertex="1">
          <mxGeometry x="120" y="344" width="60" height="30" as="geometry" />
        </mxCell>
        <mxCell id="KDw2PLHoL-oaDUTfAiRD-34" value="联系集" style="text;html=1;strokeColor=none;fillColor=none;align=center;verticalAlign=middle;whiteSpace=wrap;rounded=0;fontStyle=1" parent="1" vertex="1">
          <mxGeometry x="310" y="344" width="60" height="30" as="geometry" />
        </mxCell>
        <mxCell id="KDw2PLHoL-oaDUTfAiRD-35" value="实体集" style="text;html=1;strokeColor=none;fillColor=none;align=center;verticalAlign=middle;whiteSpace=wrap;rounded=0;fontStyle=1" parent="1" vertex="1">
          <mxGeometry x="490" y="344" width="60" height="30" as="geometry" />
        </mxCell>
      </root>
    </mxGraphModel>
  </diagram>
  <diagram id="HZYY0X618bfrLqstPv9N" name="E-R角色和描述性属性">
    <mxGraphModel dx="954" dy="663" grid="1" gridSize="10" guides="1" tooltips="1" connect="1" arrows="1" fold="1" page="1" pageScale="1" pageWidth="850" pageHeight="1100" math="0" shadow="0">
      <root>
        <mxCell id="0" />
        <mxCell id="1" parent="0" />
        <mxCell id="Jh3mrSHTjfeHdEXyX8lt-1" value="course" style="swimlane;fontStyle=1;align=center;verticalAlign=top;childLayout=stackLayout;horizontal=1;startSize=26;horizontalStack=0;resizeParent=1;resizeParentMax=0;resizeLast=0;collapsible=1;marginBottom=0;whiteSpace=wrap;html=1;fillColor=#f5f5f5;fontColor=#333333;strokeColor=#666666;" parent="1" vertex="1">
          <mxGeometry x="80" y="240" width="160" height="104" as="geometry" />
        </mxCell>
        <mxCell id="Jh3mrSHTjfeHdEXyX8lt-2" value="course_id" style="text;align=left;verticalAlign=top;spacingLeft=4;spacingRight=4;overflow=hidden;rotatable=0;points=[[0,0.5],[1,0.5]];portConstraint=eastwest;whiteSpace=wrap;html=1;" parent="Jh3mrSHTjfeHdEXyX8lt-1" vertex="1">
          <mxGeometry y="26" width="160" height="26" as="geometry" />
        </mxCell>
        <mxCell id="Jh3mrSHTjfeHdEXyX8lt-3" value="" style="endArrow=none;html=1;rounded=0;" parent="Jh3mrSHTjfeHdEXyX8lt-1" edge="1">
          <mxGeometry width="50" height="50" relative="1" as="geometry">
            <mxPoint x="8" y="50" as="sourcePoint" />
            <mxPoint x="58" y="50" as="targetPoint" />
          </mxGeometry>
        </mxCell>
        <mxCell id="Jh3mrSHTjfeHdEXyX8lt-4" value="title" style="text;align=left;verticalAlign=top;spacingLeft=4;spacingRight=4;overflow=hidden;rotatable=0;points=[[0,0.5],[1,0.5]];portConstraint=eastwest;whiteSpace=wrap;html=1;" parent="Jh3mrSHTjfeHdEXyX8lt-1" vertex="1">
          <mxGeometry y="52" width="160" height="26" as="geometry" />
        </mxCell>
        <mxCell id="Jh3mrSHTjfeHdEXyX8lt-5" value="credits" style="text;align=left;verticalAlign=top;spacingLeft=4;spacingRight=4;overflow=hidden;rotatable=0;points=[[0,0.5],[1,0.5]];portConstraint=eastwest;whiteSpace=wrap;html=1;" parent="Jh3mrSHTjfeHdEXyX8lt-1" vertex="1">
          <mxGeometry y="78" width="160" height="26" as="geometry" />
        </mxCell>
        <mxCell id="Jh3mrSHTjfeHdEXyX8lt-6" value="prereq" style="rhombus;whiteSpace=wrap;html=1;fillColor=#f5f5f5;fontColor=#333333;strokeColor=#666666;" parent="1" vertex="1">
          <mxGeometry x="290" y="257" width="100" height="70" as="geometry" />
        </mxCell>
        <mxCell id="Jh3mrSHTjfeHdEXyX8lt-7" value="" style="endArrow=none;html=1;rounded=0;" parent="1" edge="1">
          <mxGeometry width="50" height="50" relative="1" as="geometry">
            <mxPoint x="240" y="313" as="sourcePoint" />
            <mxPoint x="320" y="313" as="targetPoint" />
          </mxGeometry>
        </mxCell>
        <mxCell id="Jh3mrSHTjfeHdEXyX8lt-8" value="实体集" style="text;html=1;strokeColor=none;fillColor=none;align=center;verticalAlign=middle;whiteSpace=wrap;rounded=0;fontStyle=1" parent="1" vertex="1">
          <mxGeometry x="120" y="344" width="60" height="30" as="geometry" />
        </mxCell>
        <mxCell id="Jh3mrSHTjfeHdEXyX8lt-9" value="联系集" style="text;html=1;strokeColor=none;fillColor=none;align=center;verticalAlign=middle;whiteSpace=wrap;rounded=0;fontStyle=1" parent="1" vertex="1">
          <mxGeometry x="310" y="344" width="60" height="30" as="geometry" />
        </mxCell>
        <mxCell id="Jh3mrSHTjfeHdEXyX8lt-10" value="角色" style="text;html=1;strokeColor=none;fillColor=none;align=center;verticalAlign=middle;whiteSpace=wrap;rounded=0;fontStyle=1" parent="1" vertex="1">
          <mxGeometry x="250" y="227" width="60" height="30" as="geometry" />
        </mxCell>
        <mxCell id="Jh3mrSHTjfeHdEXyX8lt-11" value="" style="endArrow=none;html=1;rounded=0;" parent="1" edge="1">
          <mxGeometry width="50" height="50" relative="1" as="geometry">
            <mxPoint x="240" y="270" as="sourcePoint" />
            <mxPoint x="320" y="270" as="targetPoint" />
          </mxGeometry>
        </mxCell>
        <mxCell id="Jh3mrSHTjfeHdEXyX8lt-12" value="&lt;span style=&quot;font-weight: normal;&quot;&gt;course_id&lt;/span&gt;" style="text;html=1;strokeColor=none;fillColor=none;align=center;verticalAlign=middle;whiteSpace=wrap;rounded=0;fontStyle=1" parent="1" vertex="1">
          <mxGeometry x="250" y="246" width="60" height="30" as="geometry" />
        </mxCell>
        <mxCell id="Jh3mrSHTjfeHdEXyX8lt-14" value="&lt;span style=&quot;font-weight: normal;&quot;&gt;prereq_id&lt;/span&gt;" style="text;html=1;strokeColor=none;fillColor=none;align=center;verticalAlign=middle;whiteSpace=wrap;rounded=0;fontStyle=1" parent="1" vertex="1">
          <mxGeometry x="250" y="310" width="60" height="30" as="geometry" />
        </mxCell>
        <mxCell id="Jh3mrSHTjfeHdEXyX8lt-15" value="&lt;span style=&quot;font-weight: normal;&quot;&gt;grade&lt;/span&gt;" style="text;html=1;strokeColor=default;fillColor=none;align=center;verticalAlign=middle;whiteSpace=wrap;rounded=0;fontStyle=1" parent="1" vertex="1">
          <mxGeometry x="570" y="194" width="60" height="30" as="geometry" />
        </mxCell>
        <mxCell id="Jh3mrSHTjfeHdEXyX8lt-29" style="edgeStyle=orthogonalEdgeStyle;rounded=0;orthogonalLoop=1;jettySize=auto;html=1;exitX=0.5;exitY=0;exitDx=0;exitDy=0;entryX=0.5;entryY=1;entryDx=0;entryDy=0;endArrow=none;endFill=0;dashed=1;" parent="1" source="Jh3mrSHTjfeHdEXyX8lt-21" target="Jh3mrSHTjfeHdEXyX8lt-15" edge="1">
          <mxGeometry relative="1" as="geometry" />
        </mxCell>
        <mxCell id="Jh3mrSHTjfeHdEXyX8lt-21" value="takes" style="rhombus;whiteSpace=wrap;html=1;fillColor=#f5f5f5;fontColor=#333333;strokeColor=#666666;" parent="1" vertex="1">
          <mxGeometry x="550" y="271" width="100" height="70" as="geometry" />
        </mxCell>
        <mxCell id="Jh3mrSHTjfeHdEXyX8lt-22" value="" style="endArrow=none;html=1;rounded=0;exitX=1;exitY=0.5;exitDx=0;exitDy=0;entryX=0;entryY=0.5;entryDx=0;entryDy=0;" parent="1" target="Jh3mrSHTjfeHdEXyX8lt-21" edge="1">
          <mxGeometry width="50" height="50" relative="1" as="geometry">
            <mxPoint x="500" y="306" as="sourcePoint" />
            <mxPoint x="580" y="327" as="targetPoint" />
          </mxGeometry>
        </mxCell>
        <mxCell id="Jh3mrSHTjfeHdEXyX8lt-23" value="实体集" style="text;html=1;strokeColor=none;fillColor=none;align=center;verticalAlign=middle;whiteSpace=wrap;rounded=0;fontStyle=1" parent="1" vertex="1">
          <mxGeometry x="435" y="328" width="60" height="30" as="geometry" />
        </mxCell>
        <mxCell id="Jh3mrSHTjfeHdEXyX8lt-24" value="联系集" style="text;html=1;strokeColor=none;fillColor=none;align=center;verticalAlign=middle;whiteSpace=wrap;rounded=0;fontStyle=1" parent="1" vertex="1">
          <mxGeometry x="570" y="344" width="60" height="30" as="geometry" />
        </mxCell>
        <mxCell id="Jh3mrSHTjfeHdEXyX8lt-30" value="student" style="rounded=0;whiteSpace=wrap;html=1;fillColor=#f5f5f5;fontColor=#333333;strokeColor=#666666;" parent="1" vertex="1">
          <mxGeometry x="425" y="290" width="80" height="30" as="geometry" />
        </mxCell>
        <mxCell id="Jh3mrSHTjfeHdEXyX8lt-31" value="" style="endArrow=none;html=1;rounded=0;exitX=1;exitY=0.5;exitDx=0;exitDy=0;entryX=0;entryY=0.5;entryDx=0;entryDy=0;" parent="1" edge="1">
          <mxGeometry width="50" height="50" relative="1" as="geometry">
            <mxPoint x="650" y="305.58" as="sourcePoint" />
            <mxPoint x="700" y="305.58" as="targetPoint" />
          </mxGeometry>
        </mxCell>
        <mxCell id="Jh3mrSHTjfeHdEXyX8lt-32" value="section" style="rounded=0;whiteSpace=wrap;html=1;fillColor=#f5f5f5;fontColor=#333333;strokeColor=#666666;" parent="1" vertex="1">
          <mxGeometry x="695" y="290" width="80" height="30" as="geometry" />
        </mxCell>
        <mxCell id="Jh3mrSHTjfeHdEXyX8lt-33" value="描述性属性" style="text;html=1;strokeColor=none;fillColor=none;align=center;verticalAlign=middle;whiteSpace=wrap;rounded=0;fontStyle=1" parent="1" vertex="1">
          <mxGeometry x="635" y="194" width="70" height="30" as="geometry" />
        </mxCell>
      </root>
    </mxGraphModel>
  </diagram>
  <diagram id="-FMtLNaGKaSbtEh6x4XE" name="复杂属性">
    <mxGraphModel dx="954" dy="663" grid="1" gridSize="10" guides="1" tooltips="1" connect="1" arrows="1" fold="1" page="1" pageScale="1" pageWidth="850" pageHeight="1100" math="0" shadow="0">
      <root>
        <mxCell id="0" />
        <mxCell id="1" parent="0" />
        <mxCell id="ALycZhR30p-J5C_lGyvt-1" value="instructor" style="swimlane;fontStyle=1;align=center;verticalAlign=top;childLayout=stackLayout;horizontal=1;startSize=26;horizontalStack=0;resizeParent=1;resizeParentMax=0;resizeLast=0;collapsible=1;marginBottom=0;whiteSpace=wrap;html=1;fillColor=#f5f5f5;fontColor=#333333;strokeColor=#666666;" parent="1" vertex="1">
          <mxGeometry x="80" y="240" width="160" height="442" as="geometry" />
        </mxCell>
        <mxCell id="ALycZhR30p-J5C_lGyvt-2" value="id" style="text;align=left;verticalAlign=top;spacingLeft=4;spacingRight=4;overflow=hidden;rotatable=0;points=[[0,0.5],[1,0.5]];portConstraint=eastwest;whiteSpace=wrap;html=1;" parent="ALycZhR30p-J5C_lGyvt-1" vertex="1">
          <mxGeometry y="26" width="160" height="26" as="geometry" />
        </mxCell>
        <mxCell id="ALycZhR30p-J5C_lGyvt-3" value="" style="endArrow=none;html=1;rounded=0;" parent="ALycZhR30p-J5C_lGyvt-1" edge="1">
          <mxGeometry width="50" height="50" relative="1" as="geometry">
            <mxPoint x="2" y="48" as="sourcePoint" />
            <mxPoint x="22" y="48" as="targetPoint" />
          </mxGeometry>
        </mxCell>
        <mxCell id="ALycZhR30p-J5C_lGyvt-4" value="name" style="text;align=left;verticalAlign=top;spacingLeft=4;spacingRight=4;overflow=hidden;rotatable=0;points=[[0,0.5],[1,0.5]];portConstraint=eastwest;whiteSpace=wrap;html=1;" parent="ALycZhR30p-J5C_lGyvt-1" vertex="1">
          <mxGeometry y="52" width="160" height="26" as="geometry" />
        </mxCell>
        <mxCell id="ALycZhR30p-J5C_lGyvt-6" value="first_name" style="text;align=center;verticalAlign=top;spacingLeft=4;spacingRight=4;overflow=hidden;rotatable=0;points=[[0,0.5],[1,0.5]];portConstraint=eastwest;whiteSpace=wrap;html=1;" parent="ALycZhR30p-J5C_lGyvt-1" vertex="1">
          <mxGeometry y="78" width="160" height="26" as="geometry" />
        </mxCell>
        <mxCell id="ALycZhR30p-J5C_lGyvt-7" value="middle_initial" style="text;align=center;verticalAlign=top;spacingLeft=4;spacingRight=4;overflow=hidden;rotatable=0;points=[[0,0.5],[1,0.5]];portConstraint=eastwest;whiteSpace=wrap;html=1;" parent="ALycZhR30p-J5C_lGyvt-1" vertex="1">
          <mxGeometry y="104" width="160" height="26" as="geometry" />
        </mxCell>
        <mxCell id="ALycZhR30p-J5C_lGyvt-8" value="last_name" style="text;align=center;verticalAlign=top;spacingLeft=4;spacingRight=4;overflow=hidden;rotatable=0;points=[[0,0.5],[1,0.5]];portConstraint=eastwest;whiteSpace=wrap;html=1;" parent="ALycZhR30p-J5C_lGyvt-1" vertex="1">
          <mxGeometry y="130" width="160" height="26" as="geometry" />
        </mxCell>
        <mxCell id="ALycZhR30p-J5C_lGyvt-9" value="adress" style="text;align=left;verticalAlign=top;spacingLeft=4;spacingRight=4;overflow=hidden;rotatable=0;points=[[0,0.5],[1,0.5]];portConstraint=eastwest;whiteSpace=wrap;html=1;" parent="ALycZhR30p-J5C_lGyvt-1" vertex="1">
          <mxGeometry y="156" width="160" height="26" as="geometry" />
        </mxCell>
        <mxCell id="ALycZhR30p-J5C_lGyvt-10" value="street" style="text;align=center;verticalAlign=top;spacingLeft=4;spacingRight=4;overflow=hidden;rotatable=0;points=[[0,0.5],[1,0.5]];portConstraint=eastwest;whiteSpace=wrap;html=1;" parent="ALycZhR30p-J5C_lGyvt-1" vertex="1">
          <mxGeometry y="182" width="160" height="26" as="geometry" />
        </mxCell>
        <mxCell id="ALycZhR30p-J5C_lGyvt-11" value="street_number" style="text;align=right;verticalAlign=top;spacingLeft=4;spacingRight=4;overflow=hidden;rotatable=0;points=[[0,0.5],[1,0.5]];portConstraint=eastwest;whiteSpace=wrap;html=1;" parent="ALycZhR30p-J5C_lGyvt-1" vertex="1">
          <mxGeometry y="208" width="160" height="26" as="geometry" />
        </mxCell>
        <mxCell id="ALycZhR30p-J5C_lGyvt-12" value="street_name" style="text;align=right;verticalAlign=top;spacingLeft=4;spacingRight=4;overflow=hidden;rotatable=0;points=[[0,0.5],[1,0.5]];portConstraint=eastwest;whiteSpace=wrap;html=1;" parent="ALycZhR30p-J5C_lGyvt-1" vertex="1">
          <mxGeometry y="234" width="160" height="26" as="geometry" />
        </mxCell>
        <mxCell id="ALycZhR30p-J5C_lGyvt-13" value="apt_number" style="text;align=right;verticalAlign=top;spacingLeft=4;spacingRight=4;overflow=hidden;rotatable=0;points=[[0,0.5],[1,0.5]];portConstraint=eastwest;whiteSpace=wrap;html=1;" parent="ALycZhR30p-J5C_lGyvt-1" vertex="1">
          <mxGeometry y="260" width="160" height="26" as="geometry" />
        </mxCell>
        <mxCell id="ALycZhR30p-J5C_lGyvt-14" value="city" style="text;align=center;verticalAlign=top;spacingLeft=4;spacingRight=4;overflow=hidden;rotatable=0;points=[[0,0.5],[1,0.5]];portConstraint=eastwest;whiteSpace=wrap;html=1;" parent="ALycZhR30p-J5C_lGyvt-1" vertex="1">
          <mxGeometry y="286" width="160" height="26" as="geometry" />
        </mxCell>
        <mxCell id="ALycZhR30p-J5C_lGyvt-15" value="state" style="text;align=center;verticalAlign=top;spacingLeft=4;spacingRight=4;overflow=hidden;rotatable=0;points=[[0,0.5],[1,0.5]];portConstraint=eastwest;whiteSpace=wrap;html=1;" parent="ALycZhR30p-J5C_lGyvt-1" vertex="1">
          <mxGeometry y="312" width="160" height="26" as="geometry" />
        </mxCell>
        <mxCell id="ALycZhR30p-J5C_lGyvt-16" value="zip" style="text;align=center;verticalAlign=top;spacingLeft=4;spacingRight=4;overflow=hidden;rotatable=0;points=[[0,0.5],[1,0.5]];portConstraint=eastwest;whiteSpace=wrap;html=1;" parent="ALycZhR30p-J5C_lGyvt-1" vertex="1">
          <mxGeometry y="338" width="160" height="26" as="geometry" />
        </mxCell>
        <mxCell id="ALycZhR30p-J5C_lGyvt-17" value="[phoe_number]" style="text;align=left;verticalAlign=top;spacingLeft=4;spacingRight=4;overflow=hidden;rotatable=0;points=[[0,0.5],[1,0.5]];portConstraint=eastwest;whiteSpace=wrap;html=1;" parent="ALycZhR30p-J5C_lGyvt-1" vertex="1">
          <mxGeometry y="364" width="160" height="26" as="geometry" />
        </mxCell>
        <mxCell id="ALycZhR30p-J5C_lGyvt-18" value="date_of_birth" style="text;align=left;verticalAlign=top;spacingLeft=4;spacingRight=4;overflow=hidden;rotatable=0;points=[[0,0.5],[1,0.5]];portConstraint=eastwest;whiteSpace=wrap;html=1;" parent="ALycZhR30p-J5C_lGyvt-1" vertex="1">
          <mxGeometry y="390" width="160" height="26" as="geometry" />
        </mxCell>
        <mxCell id="ALycZhR30p-J5C_lGyvt-19" value="age()" style="text;align=left;verticalAlign=top;spacingLeft=4;spacingRight=4;overflow=hidden;rotatable=0;points=[[0,0.5],[1,0.5]];portConstraint=eastwest;whiteSpace=wrap;html=1;" parent="ALycZhR30p-J5C_lGyvt-1" vertex="1">
          <mxGeometry y="416" width="160" height="26" as="geometry" />
        </mxCell>
        <mxCell id="ALycZhR30p-J5C_lGyvt-20" value="简单属性" style="text;html=1;strokeColor=none;fillColor=none;align=center;verticalAlign=middle;whiteSpace=wrap;rounded=0;fontStyle=1" parent="1" vertex="1">
          <mxGeometry x="240" y="262" width="60" height="30" as="geometry" />
        </mxCell>
        <mxCell id="ALycZhR30p-J5C_lGyvt-21" value="&lt;span style=&quot;color: rgb(0, 0, 0); font-family: Helvetica; font-size: 12px; font-style: normal; font-variant-ligatures: normal; font-variant-caps: normal; letter-spacing: normal; orphans: 2; text-align: center; text-indent: 0px; text-transform: none; widows: 2; word-spacing: 0px; -webkit-text-stroke-width: 0px; background-color: rgb(251, 251, 251); text-decoration-thickness: initial; text-decoration-style: initial; text-decoration-color: initial; float: none; display: inline !important;&quot;&gt;单值属性&lt;/span&gt;" style="text;whiteSpace=wrap;html=1;fontStyle=1" parent="1" vertex="1">
          <mxGeometry x="300" y="264" width="70" height="28" as="geometry" />
        </mxCell>
        <mxCell id="ALycZhR30p-J5C_lGyvt-22" value="复合属性" style="text;html=1;strokeColor=none;fillColor=none;align=center;verticalAlign=middle;whiteSpace=wrap;rounded=0;fontStyle=1" parent="1" vertex="1">
          <mxGeometry x="240" y="292" width="60" height="30" as="geometry" />
        </mxCell>
        <mxCell id="ALycZhR30p-J5C_lGyvt-23" value="复合属性" style="text;html=1;strokeColor=none;fillColor=none;align=center;verticalAlign=middle;whiteSpace=wrap;rounded=0;fontStyle=1" parent="1" vertex="1">
          <mxGeometry x="240" y="400" width="60" height="30" as="geometry" />
        </mxCell>
        <mxCell id="ALycZhR30p-J5C_lGyvt-24" value="多值属性" style="text;html=1;strokeColor=none;fillColor=none;align=center;verticalAlign=middle;whiteSpace=wrap;rounded=0;fontStyle=1" parent="1" vertex="1">
          <mxGeometry x="240" y="600" width="60" height="30" as="geometry" />
        </mxCell>
        <mxCell id="ALycZhR30p-J5C_lGyvt-25" value="基属性 简单属性 单值属性" style="text;html=1;strokeColor=none;fillColor=none;align=center;verticalAlign=middle;whiteSpace=wrap;rounded=0;fontStyle=1" parent="1" vertex="1">
          <mxGeometry x="240" y="628" width="150" height="30" as="geometry" />
        </mxCell>
        <mxCell id="ALycZhR30p-J5C_lGyvt-26" value="派生属性" style="text;html=1;strokeColor=none;fillColor=none;align=center;verticalAlign=middle;whiteSpace=wrap;rounded=0;fontStyle=1" parent="1" vertex="1">
          <mxGeometry x="240" y="652" width="60" height="30" as="geometry" />
        </mxCell>
        <mxCell id="ALycZhR30p-J5C_lGyvt-28" value="" style="rounded=0;whiteSpace=wrap;html=1;fillColor=none;strokeColor=#FF8000;" parent="1" vertex="1">
          <mxGeometry x="86" y="400" width="148" height="200" as="geometry" />
        </mxCell>
        <mxCell id="ALycZhR30p-J5C_lGyvt-29" value="" style="rounded=0;whiteSpace=wrap;html=1;fillColor=none;strokeColor=#FF8000;" parent="1" vertex="1">
          <mxGeometry x="86" y="301" width="148" height="90" as="geometry" />
        </mxCell>
        <mxCell id="ALycZhR30p-J5C_lGyvt-30" value="" style="rounded=0;whiteSpace=wrap;html=1;fillColor=none;strokeColor=#FF8000;" parent="1" vertex="1">
          <mxGeometry x="85" y="270" width="148" height="22" as="geometry" />
        </mxCell>
        <mxCell id="ALycZhR30p-J5C_lGyvt-31" value="" style="rounded=0;whiteSpace=wrap;html=1;fillColor=none;strokeColor=#FF8000;" parent="1" vertex="1">
          <mxGeometry x="85" y="606" width="148" height="22" as="geometry" />
        </mxCell>
        <mxCell id="ALycZhR30p-J5C_lGyvt-32" value="" style="rounded=0;whiteSpace=wrap;html=1;fillColor=none;strokeColor=#FF8000;" parent="1" vertex="1">
          <mxGeometry x="85" y="633" width="148" height="22" as="geometry" />
        </mxCell>
        <mxCell id="ALycZhR30p-J5C_lGyvt-33" value="" style="rounded=0;whiteSpace=wrap;html=1;fillColor=none;strokeColor=#FF8000;" parent="1" vertex="1">
          <mxGeometry x="85" y="657" width="148" height="22" as="geometry" />
        </mxCell>
      </root>
    </mxGraphModel>
  </diagram>
  <diagram id="075SGYxe9zcYtag5W7v1" name="基数映射">
    <mxGraphModel dx="1122" dy="780" grid="1" gridSize="10" guides="1" tooltips="1" connect="1" arrows="1" fold="1" page="1" pageScale="1" pageWidth="850" pageHeight="1100" math="0" shadow="0">
      <root>
        <mxCell id="0" />
        <mxCell id="1" parent="0" />
        <mxCell id="fscUdJesj2Qem19aEmSb-1" value="instructor" style="swimlane;fontStyle=1;align=center;verticalAlign=top;childLayout=stackLayout;horizontal=1;startSize=26;horizontalStack=0;resizeParent=1;resizeParentMax=0;resizeLast=0;collapsible=1;marginBottom=0;whiteSpace=wrap;html=1;fillColor=#f5f5f5;fontColor=#333333;strokeColor=#666666;" vertex="1" parent="1">
          <mxGeometry x="80" y="240" width="160" height="104" as="geometry" />
        </mxCell>
        <mxCell id="fscUdJesj2Qem19aEmSb-2" value="id" style="text;align=left;verticalAlign=top;spacingLeft=4;spacingRight=4;overflow=hidden;rotatable=0;points=[[0,0.5],[1,0.5]];portConstraint=eastwest;whiteSpace=wrap;html=1;" vertex="1" parent="fscUdJesj2Qem19aEmSb-1">
          <mxGeometry y="26" width="160" height="26" as="geometry" />
        </mxCell>
        <mxCell id="fscUdJesj2Qem19aEmSb-3" value="" style="endArrow=none;html=1;rounded=0;" edge="1" parent="fscUdJesj2Qem19aEmSb-1">
          <mxGeometry width="50" height="50" relative="1" as="geometry">
            <mxPoint x="2" y="48" as="sourcePoint" />
            <mxPoint x="22" y="48" as="targetPoint" />
          </mxGeometry>
        </mxCell>
        <mxCell id="fscUdJesj2Qem19aEmSb-4" value="name" style="text;align=left;verticalAlign=top;spacingLeft=4;spacingRight=4;overflow=hidden;rotatable=0;points=[[0,0.5],[1,0.5]];portConstraint=eastwest;whiteSpace=wrap;html=1;" vertex="1" parent="fscUdJesj2Qem19aEmSb-1">
          <mxGeometry y="52" width="160" height="26" as="geometry" />
        </mxCell>
        <mxCell id="fscUdJesj2Qem19aEmSb-5" value="salary" style="text;align=left;verticalAlign=top;spacingLeft=4;spacingRight=4;overflow=hidden;rotatable=0;points=[[0,0.5],[1,0.5]];portConstraint=eastwest;whiteSpace=wrap;html=1;" vertex="1" parent="fscUdJesj2Qem19aEmSb-1">
          <mxGeometry y="78" width="160" height="26" as="geometry" />
        </mxCell>
        <mxCell id="fscUdJesj2Qem19aEmSb-6" value="student" style="swimlane;fontStyle=1;align=center;verticalAlign=top;childLayout=stackLayout;horizontal=1;startSize=26;horizontalStack=0;resizeParent=1;resizeParentMax=0;resizeLast=0;collapsible=1;marginBottom=0;whiteSpace=wrap;html=1;fillColor=#f5f5f5;fontColor=#333333;strokeColor=#666666;" vertex="1" parent="1">
          <mxGeometry x="440" y="240" width="160" height="104" as="geometry" />
        </mxCell>
        <mxCell id="fscUdJesj2Qem19aEmSb-7" value="id" style="text;align=left;verticalAlign=top;spacingLeft=4;spacingRight=4;overflow=hidden;rotatable=0;points=[[0,0.5],[1,0.5]];portConstraint=eastwest;whiteSpace=wrap;html=1;" vertex="1" parent="fscUdJesj2Qem19aEmSb-6">
          <mxGeometry y="26" width="160" height="26" as="geometry" />
        </mxCell>
        <mxCell id="fscUdJesj2Qem19aEmSb-8" value="" style="endArrow=none;html=1;rounded=0;" edge="1" parent="fscUdJesj2Qem19aEmSb-6">
          <mxGeometry width="50" height="50" relative="1" as="geometry">
            <mxPoint x="2" y="48.60000000000002" as="sourcePoint" />
            <mxPoint x="22" y="48.60000000000002" as="targetPoint" />
          </mxGeometry>
        </mxCell>
        <mxCell id="fscUdJesj2Qem19aEmSb-9" value="name" style="text;align=left;verticalAlign=top;spacingLeft=4;spacingRight=4;overflow=hidden;rotatable=0;points=[[0,0.5],[1,0.5]];portConstraint=eastwest;whiteSpace=wrap;html=1;" vertex="1" parent="fscUdJesj2Qem19aEmSb-6">
          <mxGeometry y="52" width="160" height="26" as="geometry" />
        </mxCell>
        <mxCell id="fscUdJesj2Qem19aEmSb-10" value="tot_cred" style="text;align=left;verticalAlign=top;spacingLeft=4;spacingRight=4;overflow=hidden;rotatable=0;points=[[0,0.5],[1,0.5]];portConstraint=eastwest;whiteSpace=wrap;html=1;" vertex="1" parent="fscUdJesj2Qem19aEmSb-6">
          <mxGeometry y="78" width="160" height="26" as="geometry" />
        </mxCell>
        <mxCell id="fscUdJesj2Qem19aEmSb-11" value="advisor" style="rhombus;whiteSpace=wrap;html=1;fillColor=#f5f5f5;fontColor=#333333;strokeColor=#666666;" vertex="1" parent="1">
          <mxGeometry x="290" y="257" width="100" height="70" as="geometry" />
        </mxCell>
        <mxCell id="fscUdJesj2Qem19aEmSb-12" value="" style="endArrow=none;html=1;rounded=0;startArrow=classic;startFill=1;" edge="1" parent="1">
          <mxGeometry width="50" height="50" relative="1" as="geometry">
            <mxPoint x="240" y="291.58" as="sourcePoint" />
            <mxPoint x="290" y="291.58" as="targetPoint" />
          </mxGeometry>
        </mxCell>
        <mxCell id="fscUdJesj2Qem19aEmSb-13" value="" style="endArrow=classic;html=1;rounded=0;endFill=1;" edge="1" parent="1">
          <mxGeometry width="50" height="50" relative="1" as="geometry">
            <mxPoint x="390" y="291.58" as="sourcePoint" />
            <mxPoint x="440" y="291.58" as="targetPoint" />
          </mxGeometry>
        </mxCell>
        <mxCell id="fscUdJesj2Qem19aEmSb-15" value="一位教师最多可以指导一名学生，且一名学生最多可有一名导师" style="text;html=1;align=center;verticalAlign=middle;resizable=0;points=[];autosize=1;strokeColor=none;fillColor=none;fontStyle=1" vertex="1" parent="1">
          <mxGeometry x="130" y="350" width="360" height="30" as="geometry" />
        </mxCell>
        <mxCell id="fscUdJesj2Qem19aEmSb-16" value="instructor" style="swimlane;fontStyle=1;align=center;verticalAlign=top;childLayout=stackLayout;horizontal=1;startSize=26;horizontalStack=0;resizeParent=1;resizeParentMax=0;resizeLast=0;collapsible=1;marginBottom=0;whiteSpace=wrap;html=1;fillColor=#f5f5f5;fontColor=#333333;strokeColor=#666666;" vertex="1" parent="1">
          <mxGeometry x="80" y="400" width="160" height="104" as="geometry" />
        </mxCell>
        <mxCell id="fscUdJesj2Qem19aEmSb-17" value="id" style="text;align=left;verticalAlign=top;spacingLeft=4;spacingRight=4;overflow=hidden;rotatable=0;points=[[0,0.5],[1,0.5]];portConstraint=eastwest;whiteSpace=wrap;html=1;" vertex="1" parent="fscUdJesj2Qem19aEmSb-16">
          <mxGeometry y="26" width="160" height="26" as="geometry" />
        </mxCell>
        <mxCell id="fscUdJesj2Qem19aEmSb-18" value="" style="endArrow=none;html=1;rounded=0;" edge="1" parent="fscUdJesj2Qem19aEmSb-16">
          <mxGeometry width="50" height="50" relative="1" as="geometry">
            <mxPoint x="2" y="48" as="sourcePoint" />
            <mxPoint x="22" y="48" as="targetPoint" />
          </mxGeometry>
        </mxCell>
        <mxCell id="fscUdJesj2Qem19aEmSb-19" value="name" style="text;align=left;verticalAlign=top;spacingLeft=4;spacingRight=4;overflow=hidden;rotatable=0;points=[[0,0.5],[1,0.5]];portConstraint=eastwest;whiteSpace=wrap;html=1;" vertex="1" parent="fscUdJesj2Qem19aEmSb-16">
          <mxGeometry y="52" width="160" height="26" as="geometry" />
        </mxCell>
        <mxCell id="fscUdJesj2Qem19aEmSb-20" value="salary" style="text;align=left;verticalAlign=top;spacingLeft=4;spacingRight=4;overflow=hidden;rotatable=0;points=[[0,0.5],[1,0.5]];portConstraint=eastwest;whiteSpace=wrap;html=1;" vertex="1" parent="fscUdJesj2Qem19aEmSb-16">
          <mxGeometry y="78" width="160" height="26" as="geometry" />
        </mxCell>
        <mxCell id="fscUdJesj2Qem19aEmSb-21" value="student" style="swimlane;fontStyle=1;align=center;verticalAlign=top;childLayout=stackLayout;horizontal=1;startSize=26;horizontalStack=0;resizeParent=1;resizeParentMax=0;resizeLast=0;collapsible=1;marginBottom=0;whiteSpace=wrap;html=1;fillColor=#f5f5f5;fontColor=#333333;strokeColor=#666666;" vertex="1" parent="1">
          <mxGeometry x="440" y="400" width="160" height="104" as="geometry" />
        </mxCell>
        <mxCell id="fscUdJesj2Qem19aEmSb-22" value="id" style="text;align=left;verticalAlign=top;spacingLeft=4;spacingRight=4;overflow=hidden;rotatable=0;points=[[0,0.5],[1,0.5]];portConstraint=eastwest;whiteSpace=wrap;html=1;" vertex="1" parent="fscUdJesj2Qem19aEmSb-21">
          <mxGeometry y="26" width="160" height="26" as="geometry" />
        </mxCell>
        <mxCell id="fscUdJesj2Qem19aEmSb-23" value="" style="endArrow=none;html=1;rounded=0;" edge="1" parent="fscUdJesj2Qem19aEmSb-21">
          <mxGeometry width="50" height="50" relative="1" as="geometry">
            <mxPoint x="2" y="48.60000000000002" as="sourcePoint" />
            <mxPoint x="22" y="48.60000000000002" as="targetPoint" />
          </mxGeometry>
        </mxCell>
        <mxCell id="fscUdJesj2Qem19aEmSb-24" value="name" style="text;align=left;verticalAlign=top;spacingLeft=4;spacingRight=4;overflow=hidden;rotatable=0;points=[[0,0.5],[1,0.5]];portConstraint=eastwest;whiteSpace=wrap;html=1;" vertex="1" parent="fscUdJesj2Qem19aEmSb-21">
          <mxGeometry y="52" width="160" height="26" as="geometry" />
        </mxCell>
        <mxCell id="fscUdJesj2Qem19aEmSb-25" value="tot_cred" style="text;align=left;verticalAlign=top;spacingLeft=4;spacingRight=4;overflow=hidden;rotatable=0;points=[[0,0.5],[1,0.5]];portConstraint=eastwest;whiteSpace=wrap;html=1;" vertex="1" parent="fscUdJesj2Qem19aEmSb-21">
          <mxGeometry y="78" width="160" height="26" as="geometry" />
        </mxCell>
        <mxCell id="fscUdJesj2Qem19aEmSb-26" value="advisor" style="rhombus;whiteSpace=wrap;html=1;fillColor=#f5f5f5;fontColor=#333333;strokeColor=#666666;" vertex="1" parent="1">
          <mxGeometry x="290" y="417" width="100" height="70" as="geometry" />
        </mxCell>
        <mxCell id="fscUdJesj2Qem19aEmSb-27" value="" style="endArrow=none;html=1;rounded=0;startArrow=classic;startFill=1;" edge="1" parent="1">
          <mxGeometry width="50" height="50" relative="1" as="geometry">
            <mxPoint x="240" y="451.58" as="sourcePoint" />
            <mxPoint x="290" y="451.58" as="targetPoint" />
          </mxGeometry>
        </mxCell>
        <mxCell id="fscUdJesj2Qem19aEmSb-28" value="" style="endArrow=none;html=1;rounded=0;endFill=0;" edge="1" parent="1">
          <mxGeometry width="50" height="50" relative="1" as="geometry">
            <mxPoint x="390" y="451.58" as="sourcePoint" />
            <mxPoint x="440" y="451.58" as="targetPoint" />
          </mxGeometry>
        </mxCell>
        <mxCell id="fscUdJesj2Qem19aEmSb-29" value="一位教师可以指导多名学生，但一名学生最多可有一名导师" style="text;html=1;align=center;verticalAlign=middle;resizable=0;points=[];autosize=1;strokeColor=none;fillColor=none;fontStyle=1" vertex="1" parent="1">
          <mxGeometry x="140" y="510" width="340" height="30" as="geometry" />
        </mxCell>
        <mxCell id="fscUdJesj2Qem19aEmSb-30" value="instructor" style="swimlane;fontStyle=1;align=center;verticalAlign=top;childLayout=stackLayout;horizontal=1;startSize=26;horizontalStack=0;resizeParent=1;resizeParentMax=0;resizeLast=0;collapsible=1;marginBottom=0;whiteSpace=wrap;html=1;fillColor=#f5f5f5;fontColor=#333333;strokeColor=#666666;" vertex="1" parent="1">
          <mxGeometry x="640" y="240" width="160" height="104" as="geometry" />
        </mxCell>
        <mxCell id="fscUdJesj2Qem19aEmSb-31" value="id" style="text;align=left;verticalAlign=top;spacingLeft=4;spacingRight=4;overflow=hidden;rotatable=0;points=[[0,0.5],[1,0.5]];portConstraint=eastwest;whiteSpace=wrap;html=1;" vertex="1" parent="fscUdJesj2Qem19aEmSb-30">
          <mxGeometry y="26" width="160" height="26" as="geometry" />
        </mxCell>
        <mxCell id="fscUdJesj2Qem19aEmSb-32" value="" style="endArrow=none;html=1;rounded=0;" edge="1" parent="fscUdJesj2Qem19aEmSb-30">
          <mxGeometry width="50" height="50" relative="1" as="geometry">
            <mxPoint x="2" y="48" as="sourcePoint" />
            <mxPoint x="22" y="48" as="targetPoint" />
          </mxGeometry>
        </mxCell>
        <mxCell id="fscUdJesj2Qem19aEmSb-33" value="name" style="text;align=left;verticalAlign=top;spacingLeft=4;spacingRight=4;overflow=hidden;rotatable=0;points=[[0,0.5],[1,0.5]];portConstraint=eastwest;whiteSpace=wrap;html=1;" vertex="1" parent="fscUdJesj2Qem19aEmSb-30">
          <mxGeometry y="52" width="160" height="26" as="geometry" />
        </mxCell>
        <mxCell id="fscUdJesj2Qem19aEmSb-34" value="salary" style="text;align=left;verticalAlign=top;spacingLeft=4;spacingRight=4;overflow=hidden;rotatable=0;points=[[0,0.5],[1,0.5]];portConstraint=eastwest;whiteSpace=wrap;html=1;" vertex="1" parent="fscUdJesj2Qem19aEmSb-30">
          <mxGeometry y="78" width="160" height="26" as="geometry" />
        </mxCell>
        <mxCell id="fscUdJesj2Qem19aEmSb-35" value="student" style="swimlane;fontStyle=1;align=center;verticalAlign=top;childLayout=stackLayout;horizontal=1;startSize=26;horizontalStack=0;resizeParent=1;resizeParentMax=0;resizeLast=0;collapsible=1;marginBottom=0;whiteSpace=wrap;html=1;fillColor=#f5f5f5;fontColor=#333333;strokeColor=#666666;" vertex="1" parent="1">
          <mxGeometry x="1000" y="240" width="160" height="104" as="geometry" />
        </mxCell>
        <mxCell id="fscUdJesj2Qem19aEmSb-36" value="id" style="text;align=left;verticalAlign=top;spacingLeft=4;spacingRight=4;overflow=hidden;rotatable=0;points=[[0,0.5],[1,0.5]];portConstraint=eastwest;whiteSpace=wrap;html=1;" vertex="1" parent="fscUdJesj2Qem19aEmSb-35">
          <mxGeometry y="26" width="160" height="26" as="geometry" />
        </mxCell>
        <mxCell id="fscUdJesj2Qem19aEmSb-37" value="" style="endArrow=none;html=1;rounded=0;" edge="1" parent="fscUdJesj2Qem19aEmSb-35">
          <mxGeometry width="50" height="50" relative="1" as="geometry">
            <mxPoint x="2" y="48.60000000000002" as="sourcePoint" />
            <mxPoint x="22" y="48.60000000000002" as="targetPoint" />
          </mxGeometry>
        </mxCell>
        <mxCell id="fscUdJesj2Qem19aEmSb-38" value="name" style="text;align=left;verticalAlign=top;spacingLeft=4;spacingRight=4;overflow=hidden;rotatable=0;points=[[0,0.5],[1,0.5]];portConstraint=eastwest;whiteSpace=wrap;html=1;" vertex="1" parent="fscUdJesj2Qem19aEmSb-35">
          <mxGeometry y="52" width="160" height="26" as="geometry" />
        </mxCell>
        <mxCell id="fscUdJesj2Qem19aEmSb-39" value="tot_cred" style="text;align=left;verticalAlign=top;spacingLeft=4;spacingRight=4;overflow=hidden;rotatable=0;points=[[0,0.5],[1,0.5]];portConstraint=eastwest;whiteSpace=wrap;html=1;" vertex="1" parent="fscUdJesj2Qem19aEmSb-35">
          <mxGeometry y="78" width="160" height="26" as="geometry" />
        </mxCell>
        <mxCell id="fscUdJesj2Qem19aEmSb-40" value="advisor" style="rhombus;whiteSpace=wrap;html=1;fillColor=#f5f5f5;fontColor=#333333;strokeColor=#666666;" vertex="1" parent="1">
          <mxGeometry x="850" y="257" width="100" height="70" as="geometry" />
        </mxCell>
        <mxCell id="fscUdJesj2Qem19aEmSb-41" value="" style="endArrow=none;html=1;rounded=0;startArrow=none;startFill=0;" edge="1" parent="1">
          <mxGeometry width="50" height="50" relative="1" as="geometry">
            <mxPoint x="800" y="291.58" as="sourcePoint" />
            <mxPoint x="850" y="291.58" as="targetPoint" />
          </mxGeometry>
        </mxCell>
        <mxCell id="fscUdJesj2Qem19aEmSb-42" value="" style="endArrow=classic;html=1;rounded=0;endFill=1;" edge="1" parent="1">
          <mxGeometry width="50" height="50" relative="1" as="geometry">
            <mxPoint x="950" y="291.58" as="sourcePoint" />
            <mxPoint x="1000" y="291.58" as="targetPoint" />
          </mxGeometry>
        </mxCell>
        <mxCell id="fscUdJesj2Qem19aEmSb-43" value="一位教师最多可以指导一名学生，但一名学生可以有多名导师" style="text;html=1;align=center;verticalAlign=middle;resizable=0;points=[];autosize=1;strokeColor=none;fillColor=none;fontStyle=1" vertex="1" parent="1">
          <mxGeometry x="695" y="350" width="350" height="30" as="geometry" />
        </mxCell>
        <mxCell id="fscUdJesj2Qem19aEmSb-44" value="instructor" style="swimlane;fontStyle=1;align=center;verticalAlign=top;childLayout=stackLayout;horizontal=1;startSize=26;horizontalStack=0;resizeParent=1;resizeParentMax=0;resizeLast=0;collapsible=1;marginBottom=0;whiteSpace=wrap;html=1;fillColor=#f5f5f5;fontColor=#333333;strokeColor=#666666;" vertex="1" parent="1">
          <mxGeometry x="640" y="400" width="160" height="104" as="geometry" />
        </mxCell>
        <mxCell id="fscUdJesj2Qem19aEmSb-45" value="id" style="text;align=left;verticalAlign=top;spacingLeft=4;spacingRight=4;overflow=hidden;rotatable=0;points=[[0,0.5],[1,0.5]];portConstraint=eastwest;whiteSpace=wrap;html=1;" vertex="1" parent="fscUdJesj2Qem19aEmSb-44">
          <mxGeometry y="26" width="160" height="26" as="geometry" />
        </mxCell>
        <mxCell id="fscUdJesj2Qem19aEmSb-46" value="" style="endArrow=none;html=1;rounded=0;" edge="1" parent="fscUdJesj2Qem19aEmSb-44">
          <mxGeometry width="50" height="50" relative="1" as="geometry">
            <mxPoint x="2" y="48" as="sourcePoint" />
            <mxPoint x="22" y="48" as="targetPoint" />
          </mxGeometry>
        </mxCell>
        <mxCell id="fscUdJesj2Qem19aEmSb-47" value="name" style="text;align=left;verticalAlign=top;spacingLeft=4;spacingRight=4;overflow=hidden;rotatable=0;points=[[0,0.5],[1,0.5]];portConstraint=eastwest;whiteSpace=wrap;html=1;" vertex="1" parent="fscUdJesj2Qem19aEmSb-44">
          <mxGeometry y="52" width="160" height="26" as="geometry" />
        </mxCell>
        <mxCell id="fscUdJesj2Qem19aEmSb-48" value="salary" style="text;align=left;verticalAlign=top;spacingLeft=4;spacingRight=4;overflow=hidden;rotatable=0;points=[[0,0.5],[1,0.5]];portConstraint=eastwest;whiteSpace=wrap;html=1;" vertex="1" parent="fscUdJesj2Qem19aEmSb-44">
          <mxGeometry y="78" width="160" height="26" as="geometry" />
        </mxCell>
        <mxCell id="fscUdJesj2Qem19aEmSb-49" value="student" style="swimlane;fontStyle=1;align=center;verticalAlign=top;childLayout=stackLayout;horizontal=1;startSize=26;horizontalStack=0;resizeParent=1;resizeParentMax=0;resizeLast=0;collapsible=1;marginBottom=0;whiteSpace=wrap;html=1;fillColor=#f5f5f5;fontColor=#333333;strokeColor=#666666;" vertex="1" parent="1">
          <mxGeometry x="1000" y="400" width="160" height="104" as="geometry" />
        </mxCell>
        <mxCell id="fscUdJesj2Qem19aEmSb-50" value="id" style="text;align=left;verticalAlign=top;spacingLeft=4;spacingRight=4;overflow=hidden;rotatable=0;points=[[0,0.5],[1,0.5]];portConstraint=eastwest;whiteSpace=wrap;html=1;" vertex="1" parent="fscUdJesj2Qem19aEmSb-49">
          <mxGeometry y="26" width="160" height="26" as="geometry" />
        </mxCell>
        <mxCell id="fscUdJesj2Qem19aEmSb-51" value="" style="endArrow=none;html=1;rounded=0;" edge="1" parent="fscUdJesj2Qem19aEmSb-49">
          <mxGeometry width="50" height="50" relative="1" as="geometry">
            <mxPoint x="2" y="48.60000000000002" as="sourcePoint" />
            <mxPoint x="22" y="48.60000000000002" as="targetPoint" />
          </mxGeometry>
        </mxCell>
        <mxCell id="fscUdJesj2Qem19aEmSb-52" value="name" style="text;align=left;verticalAlign=top;spacingLeft=4;spacingRight=4;overflow=hidden;rotatable=0;points=[[0,0.5],[1,0.5]];portConstraint=eastwest;whiteSpace=wrap;html=1;" vertex="1" parent="fscUdJesj2Qem19aEmSb-49">
          <mxGeometry y="52" width="160" height="26" as="geometry" />
        </mxCell>
        <mxCell id="fscUdJesj2Qem19aEmSb-53" value="tot_cred" style="text;align=left;verticalAlign=top;spacingLeft=4;spacingRight=4;overflow=hidden;rotatable=0;points=[[0,0.5],[1,0.5]];portConstraint=eastwest;whiteSpace=wrap;html=1;" vertex="1" parent="fscUdJesj2Qem19aEmSb-49">
          <mxGeometry y="78" width="160" height="26" as="geometry" />
        </mxCell>
        <mxCell id="fscUdJesj2Qem19aEmSb-54" value="advisor" style="rhombus;whiteSpace=wrap;html=1;fillColor=#f5f5f5;fontColor=#333333;strokeColor=#666666;" vertex="1" parent="1">
          <mxGeometry x="850" y="417" width="100" height="70" as="geometry" />
        </mxCell>
        <mxCell id="fscUdJesj2Qem19aEmSb-55" value="" style="endArrow=none;html=1;rounded=0;startArrow=none;startFill=0;" edge="1" parent="1">
          <mxGeometry width="50" height="50" relative="1" as="geometry">
            <mxPoint x="800" y="451.58" as="sourcePoint" />
            <mxPoint x="850" y="451.58" as="targetPoint" />
          </mxGeometry>
        </mxCell>
        <mxCell id="fscUdJesj2Qem19aEmSb-56" value="" style="endArrow=none;html=1;rounded=0;endFill=0;" edge="1" parent="1">
          <mxGeometry width="50" height="50" relative="1" as="geometry">
            <mxPoint x="950" y="451.58" as="sourcePoint" />
            <mxPoint x="1000" y="451.58" as="targetPoint" />
          </mxGeometry>
        </mxCell>
        <mxCell id="fscUdJesj2Qem19aEmSb-57" value="一位教师可以指导多名学生，且一名学生可以有多名导师" style="text;html=1;align=center;verticalAlign=middle;resizable=0;points=[];autosize=1;strokeColor=none;fillColor=none;fontStyle=1" vertex="1" parent="1">
          <mxGeometry x="710" y="510" width="320" height="30" as="geometry" />
        </mxCell>
      </root>
    </mxGraphModel>
  </diagram>
  <diagram id="_LJ_Se7OO3IWemz--LUf" name="全部参与部分参与">
    <mxGraphModel dx="954" dy="663" grid="1" gridSize="10" guides="1" tooltips="1" connect="1" arrows="1" fold="1" page="1" pageScale="1" pageWidth="850" pageHeight="1100" math="0" shadow="0">
      <root>
        <mxCell id="0" />
        <mxCell id="1" parent="0" />
        <mxCell id="DRPE1pPJhipXqAGRG67i-1" value="instructor" style="swimlane;fontStyle=1;align=center;verticalAlign=top;childLayout=stackLayout;horizontal=1;startSize=26;horizontalStack=0;resizeParent=1;resizeParentMax=0;resizeLast=0;collapsible=1;marginBottom=0;whiteSpace=wrap;html=1;fillColor=#f5f5f5;fontColor=#333333;strokeColor=#666666;" vertex="1" parent="1">
          <mxGeometry x="90" y="330" width="160" height="104" as="geometry" />
        </mxCell>
        <mxCell id="DRPE1pPJhipXqAGRG67i-2" value="id" style="text;align=left;verticalAlign=top;spacingLeft=4;spacingRight=4;overflow=hidden;rotatable=0;points=[[0,0.5],[1,0.5]];portConstraint=eastwest;whiteSpace=wrap;html=1;" vertex="1" parent="DRPE1pPJhipXqAGRG67i-1">
          <mxGeometry y="26" width="160" height="26" as="geometry" />
        </mxCell>
        <mxCell id="DRPE1pPJhipXqAGRG67i-3" value="" style="endArrow=none;html=1;rounded=0;" edge="1" parent="DRPE1pPJhipXqAGRG67i-1">
          <mxGeometry width="50" height="50" relative="1" as="geometry">
            <mxPoint x="2" y="48" as="sourcePoint" />
            <mxPoint x="22" y="48" as="targetPoint" />
          </mxGeometry>
        </mxCell>
        <mxCell id="DRPE1pPJhipXqAGRG67i-4" value="name" style="text;align=left;verticalAlign=top;spacingLeft=4;spacingRight=4;overflow=hidden;rotatable=0;points=[[0,0.5],[1,0.5]];portConstraint=eastwest;whiteSpace=wrap;html=1;" vertex="1" parent="DRPE1pPJhipXqAGRG67i-1">
          <mxGeometry y="52" width="160" height="26" as="geometry" />
        </mxCell>
        <mxCell id="DRPE1pPJhipXqAGRG67i-5" value="salary" style="text;align=left;verticalAlign=top;spacingLeft=4;spacingRight=4;overflow=hidden;rotatable=0;points=[[0,0.5],[1,0.5]];portConstraint=eastwest;whiteSpace=wrap;html=1;" vertex="1" parent="DRPE1pPJhipXqAGRG67i-1">
          <mxGeometry y="78" width="160" height="26" as="geometry" />
        </mxCell>
        <mxCell id="DRPE1pPJhipXqAGRG67i-6" value="student" style="swimlane;fontStyle=1;align=center;verticalAlign=top;childLayout=stackLayout;horizontal=1;startSize=26;horizontalStack=0;resizeParent=1;resizeParentMax=0;resizeLast=0;collapsible=1;marginBottom=0;whiteSpace=wrap;html=1;fillColor=#f5f5f5;fontColor=#333333;strokeColor=#666666;" vertex="1" parent="1">
          <mxGeometry x="450" y="330" width="160" height="104" as="geometry" />
        </mxCell>
        <mxCell id="DRPE1pPJhipXqAGRG67i-7" value="id" style="text;align=left;verticalAlign=top;spacingLeft=4;spacingRight=4;overflow=hidden;rotatable=0;points=[[0,0.5],[1,0.5]];portConstraint=eastwest;whiteSpace=wrap;html=1;" vertex="1" parent="DRPE1pPJhipXqAGRG67i-6">
          <mxGeometry y="26" width="160" height="26" as="geometry" />
        </mxCell>
        <mxCell id="DRPE1pPJhipXqAGRG67i-8" value="" style="endArrow=none;html=1;rounded=0;" edge="1" parent="DRPE1pPJhipXqAGRG67i-6">
          <mxGeometry width="50" height="50" relative="1" as="geometry">
            <mxPoint x="2" y="48.60000000000002" as="sourcePoint" />
            <mxPoint x="22" y="48.60000000000002" as="targetPoint" />
          </mxGeometry>
        </mxCell>
        <mxCell id="DRPE1pPJhipXqAGRG67i-9" value="name" style="text;align=left;verticalAlign=top;spacingLeft=4;spacingRight=4;overflow=hidden;rotatable=0;points=[[0,0.5],[1,0.5]];portConstraint=eastwest;whiteSpace=wrap;html=1;" vertex="1" parent="DRPE1pPJhipXqAGRG67i-6">
          <mxGeometry y="52" width="160" height="26" as="geometry" />
        </mxCell>
        <mxCell id="DRPE1pPJhipXqAGRG67i-10" value="tot_cred" style="text;align=left;verticalAlign=top;spacingLeft=4;spacingRight=4;overflow=hidden;rotatable=0;points=[[0,0.5],[1,0.5]];portConstraint=eastwest;whiteSpace=wrap;html=1;" vertex="1" parent="DRPE1pPJhipXqAGRG67i-6">
          <mxGeometry y="78" width="160" height="26" as="geometry" />
        </mxCell>
        <mxCell id="DRPE1pPJhipXqAGRG67i-11" value="advisor" style="rhombus;whiteSpace=wrap;html=1;fillColor=#f5f5f5;fontColor=#333333;strokeColor=#666666;" vertex="1" parent="1">
          <mxGeometry x="300" y="347" width="100" height="70" as="geometry" />
        </mxCell>
        <mxCell id="DRPE1pPJhipXqAGRG67i-12" value="" style="endArrow=none;html=1;rounded=0;startArrow=none;startFill=0;" edge="1" parent="1">
          <mxGeometry width="50" height="50" relative="1" as="geometry">
            <mxPoint x="250" y="381.58" as="sourcePoint" />
            <mxPoint x="300" y="381.58" as="targetPoint" />
          </mxGeometry>
        </mxCell>
        <mxCell id="DRPE1pPJhipXqAGRG67i-13" value="" style="endArrow=none;html=1;rounded=0;endFill=0;shape=link;" edge="1" parent="1">
          <mxGeometry width="50" height="50" relative="1" as="geometry">
            <mxPoint x="400" y="381.58" as="sourcePoint" />
            <mxPoint x="450" y="381.58" as="targetPoint" />
          </mxGeometry>
        </mxCell>
      </root>
    </mxGraphModel>
  </diagram>
  <diagram id="hcSvuHDPoD_vwAAgf5Xs" name="lh基数映射">
    <mxGraphModel dx="954" dy="663" grid="1" gridSize="10" guides="1" tooltips="1" connect="1" arrows="1" fold="1" page="1" pageScale="1" pageWidth="850" pageHeight="1100" math="0" shadow="0">
      <root>
        <mxCell id="0" />
        <mxCell id="1" parent="0" />
        <mxCell id="sAd90dxbapTbBKouO9nn-1" value="instructor" style="swimlane;fontStyle=1;align=center;verticalAlign=top;childLayout=stackLayout;horizontal=1;startSize=26;horizontalStack=0;resizeParent=1;resizeParentMax=0;resizeLast=0;collapsible=1;marginBottom=0;whiteSpace=wrap;html=1;fillColor=#f5f5f5;fontColor=#333333;strokeColor=#666666;" vertex="1" parent="1">
          <mxGeometry x="90" y="330" width="160" height="104" as="geometry" />
        </mxCell>
        <mxCell id="sAd90dxbapTbBKouO9nn-2" value="id" style="text;align=left;verticalAlign=top;spacingLeft=4;spacingRight=4;overflow=hidden;rotatable=0;points=[[0,0.5],[1,0.5]];portConstraint=eastwest;whiteSpace=wrap;html=1;" vertex="1" parent="sAd90dxbapTbBKouO9nn-1">
          <mxGeometry y="26" width="160" height="26" as="geometry" />
        </mxCell>
        <mxCell id="sAd90dxbapTbBKouO9nn-3" value="" style="endArrow=none;html=1;rounded=0;" edge="1" parent="sAd90dxbapTbBKouO9nn-1">
          <mxGeometry width="50" height="50" relative="1" as="geometry">
            <mxPoint x="2" y="48" as="sourcePoint" />
            <mxPoint x="22" y="48" as="targetPoint" />
          </mxGeometry>
        </mxCell>
        <mxCell id="sAd90dxbapTbBKouO9nn-4" value="name" style="text;align=left;verticalAlign=top;spacingLeft=4;spacingRight=4;overflow=hidden;rotatable=0;points=[[0,0.5],[1,0.5]];portConstraint=eastwest;whiteSpace=wrap;html=1;" vertex="1" parent="sAd90dxbapTbBKouO9nn-1">
          <mxGeometry y="52" width="160" height="26" as="geometry" />
        </mxCell>
        <mxCell id="sAd90dxbapTbBKouO9nn-5" value="salary" style="text;align=left;verticalAlign=top;spacingLeft=4;spacingRight=4;overflow=hidden;rotatable=0;points=[[0,0.5],[1,0.5]];portConstraint=eastwest;whiteSpace=wrap;html=1;" vertex="1" parent="sAd90dxbapTbBKouO9nn-1">
          <mxGeometry y="78" width="160" height="26" as="geometry" />
        </mxCell>
        <mxCell id="sAd90dxbapTbBKouO9nn-6" value="student" style="swimlane;fontStyle=1;align=center;verticalAlign=top;childLayout=stackLayout;horizontal=1;startSize=26;horizontalStack=0;resizeParent=1;resizeParentMax=0;resizeLast=0;collapsible=1;marginBottom=0;whiteSpace=wrap;html=1;fillColor=#f5f5f5;fontColor=#333333;strokeColor=#666666;" vertex="1" parent="1">
          <mxGeometry x="450" y="330" width="160" height="104" as="geometry" />
        </mxCell>
        <mxCell id="sAd90dxbapTbBKouO9nn-7" value="id" style="text;align=left;verticalAlign=top;spacingLeft=4;spacingRight=4;overflow=hidden;rotatable=0;points=[[0,0.5],[1,0.5]];portConstraint=eastwest;whiteSpace=wrap;html=1;" vertex="1" parent="sAd90dxbapTbBKouO9nn-6">
          <mxGeometry y="26" width="160" height="26" as="geometry" />
        </mxCell>
        <mxCell id="sAd90dxbapTbBKouO9nn-8" value="" style="endArrow=none;html=1;rounded=0;" edge="1" parent="sAd90dxbapTbBKouO9nn-6">
          <mxGeometry width="50" height="50" relative="1" as="geometry">
            <mxPoint x="2" y="48.60000000000002" as="sourcePoint" />
            <mxPoint x="22" y="48.60000000000002" as="targetPoint" />
          </mxGeometry>
        </mxCell>
        <mxCell id="sAd90dxbapTbBKouO9nn-9" value="name" style="text;align=left;verticalAlign=top;spacingLeft=4;spacingRight=4;overflow=hidden;rotatable=0;points=[[0,0.5],[1,0.5]];portConstraint=eastwest;whiteSpace=wrap;html=1;" vertex="1" parent="sAd90dxbapTbBKouO9nn-6">
          <mxGeometry y="52" width="160" height="26" as="geometry" />
        </mxCell>
        <mxCell id="sAd90dxbapTbBKouO9nn-10" value="tot_cred" style="text;align=left;verticalAlign=top;spacingLeft=4;spacingRight=4;overflow=hidden;rotatable=0;points=[[0,0.5],[1,0.5]];portConstraint=eastwest;whiteSpace=wrap;html=1;" vertex="1" parent="sAd90dxbapTbBKouO9nn-6">
          <mxGeometry y="78" width="160" height="26" as="geometry" />
        </mxCell>
        <mxCell id="sAd90dxbapTbBKouO9nn-11" value="advisor" style="rhombus;whiteSpace=wrap;html=1;fillColor=#f5f5f5;fontColor=#333333;strokeColor=#666666;" vertex="1" parent="1">
          <mxGeometry x="300" y="347" width="100" height="70" as="geometry" />
        </mxCell>
        <mxCell id="sAd90dxbapTbBKouO9nn-12" value="" style="endArrow=none;html=1;rounded=0;startArrow=none;startFill=0;" edge="1" parent="1">
          <mxGeometry width="50" height="50" relative="1" as="geometry">
            <mxPoint x="250" y="381.58" as="sourcePoint" />
            <mxPoint x="300" y="381.58" as="targetPoint" />
          </mxGeometry>
        </mxCell>
        <mxCell id="sAd90dxbapTbBKouO9nn-13" value="" style="endArrow=none;html=1;rounded=0;endFill=0;" edge="1" parent="1">
          <mxGeometry width="50" height="50" relative="1" as="geometry">
            <mxPoint x="400" y="381.58" as="sourcePoint" />
            <mxPoint x="450" y="381.58" as="targetPoint" />
          </mxGeometry>
        </mxCell>
        <mxCell id="sAd90dxbapTbBKouO9nn-14" value="0..*" style="text;html=1;align=center;verticalAlign=middle;resizable=0;points=[];autosize=1;strokeColor=none;fillColor=none;" vertex="1" parent="1">
          <mxGeometry x="260" y="360" width="40" height="30" as="geometry" />
        </mxCell>
        <mxCell id="sAd90dxbapTbBKouO9nn-15" value="1..1" style="text;html=1;align=center;verticalAlign=middle;resizable=0;points=[];autosize=1;strokeColor=none;fillColor=none;" vertex="1" parent="1">
          <mxGeometry x="405" y="360" width="40" height="30" as="geometry" />
        </mxCell>
        <mxCell id="-Jj4Lqf3DI0Sn4fRiet3-1" value="一位教师可以指导多名学生，但一名学生有且仅有一名导师" style="text;html=1;align=center;verticalAlign=middle;resizable=0;points=[];autosize=1;strokeColor=none;fillColor=none;fontStyle=1" vertex="1" parent="1">
          <mxGeometry x="160" y="434" width="340" height="30" as="geometry" />
        </mxCell>
      </root>
    </mxGraphModel>
  </diagram>
  <diagram id="dHyjIDlFP5h82HLX4777" name="弱实体集">
    <mxGraphModel dx="658" dy="457" grid="1" gridSize="10" guides="1" tooltips="1" connect="1" arrows="1" fold="1" page="1" pageScale="1" pageWidth="850" pageHeight="1100" math="0" shadow="0">
      <root>
        <mxCell id="0" />
        <mxCell id="1" parent="0" />
        <mxCell id="YZBGLU8kvFxJoNcMDgSB-15" value="" style="rounded=0;whiteSpace=wrap;html=1;fillColor=none;" vertex="1" parent="1">
          <mxGeometry x="445" y="324" width="170" height="116" as="geometry" />
        </mxCell>
        <mxCell id="YZBGLU8kvFxJoNcMDgSB-1" value="course" style="swimlane;fontStyle=1;align=center;verticalAlign=top;childLayout=stackLayout;horizontal=1;startSize=26;horizontalStack=0;resizeParent=1;resizeParentMax=0;resizeLast=0;collapsible=1;marginBottom=0;whiteSpace=wrap;html=1;fillColor=#f5f5f5;fontColor=#333333;strokeColor=#666666;" vertex="1" parent="1">
          <mxGeometry x="90" y="330" width="160" height="104" as="geometry" />
        </mxCell>
        <mxCell id="YZBGLU8kvFxJoNcMDgSB-2" value="course_id" style="text;align=left;verticalAlign=top;spacingLeft=4;spacingRight=4;overflow=hidden;rotatable=0;points=[[0,0.5],[1,0.5]];portConstraint=eastwest;whiteSpace=wrap;html=1;" vertex="1" parent="YZBGLU8kvFxJoNcMDgSB-1">
          <mxGeometry y="26" width="160" height="26" as="geometry" />
        </mxCell>
        <mxCell id="YZBGLU8kvFxJoNcMDgSB-3" value="" style="endArrow=none;html=1;rounded=0;" edge="1" parent="YZBGLU8kvFxJoNcMDgSB-1">
          <mxGeometry width="50" height="50" relative="1" as="geometry">
            <mxPoint x="10" y="50" as="sourcePoint" />
            <mxPoint x="50" y="50" as="targetPoint" />
          </mxGeometry>
        </mxCell>
        <mxCell id="YZBGLU8kvFxJoNcMDgSB-4" value="title" style="text;align=left;verticalAlign=top;spacingLeft=4;spacingRight=4;overflow=hidden;rotatable=0;points=[[0,0.5],[1,0.5]];portConstraint=eastwest;whiteSpace=wrap;html=1;" vertex="1" parent="YZBGLU8kvFxJoNcMDgSB-1">
          <mxGeometry y="52" width="160" height="26" as="geometry" />
        </mxCell>
        <mxCell id="YZBGLU8kvFxJoNcMDgSB-5" value="credits" style="text;align=left;verticalAlign=top;spacingLeft=4;spacingRight=4;overflow=hidden;rotatable=0;points=[[0,0.5],[1,0.5]];portConstraint=eastwest;whiteSpace=wrap;html=1;" vertex="1" parent="YZBGLU8kvFxJoNcMDgSB-1">
          <mxGeometry y="78" width="160" height="26" as="geometry" />
        </mxCell>
        <mxCell id="YZBGLU8kvFxJoNcMDgSB-6" value="student" style="swimlane;fontStyle=1;align=center;verticalAlign=top;childLayout=stackLayout;horizontal=1;startSize=26;horizontalStack=0;resizeParent=1;resizeParentMax=0;resizeLast=0;collapsible=1;marginBottom=0;whiteSpace=wrap;html=1;fillColor=#f5f5f5;fontColor=#333333;strokeColor=#666666;" vertex="1" parent="1">
          <mxGeometry x="450" y="330" width="160" height="104" as="geometry" />
        </mxCell>
        <mxCell id="YZBGLU8kvFxJoNcMDgSB-7" value="sec_id" style="text;align=left;verticalAlign=top;spacingLeft=4;spacingRight=4;overflow=hidden;rotatable=0;points=[[0,0.5],[1,0.5]];portConstraint=eastwest;whiteSpace=wrap;html=1;" vertex="1" parent="YZBGLU8kvFxJoNcMDgSB-6">
          <mxGeometry y="26" width="160" height="26" as="geometry" />
        </mxCell>
        <mxCell id="YZBGLU8kvFxJoNcMDgSB-17" value="" style="endArrow=none;html=1;rounded=0;dashed=1;" edge="1" parent="YZBGLU8kvFxJoNcMDgSB-6">
          <mxGeometry width="50" height="50" relative="1" as="geometry">
            <mxPoint x="7" y="50" as="sourcePoint" />
            <mxPoint x="41.5" y="50" as="targetPoint" />
          </mxGeometry>
        </mxCell>
        <mxCell id="YZBGLU8kvFxJoNcMDgSB-9" value="name" style="text;align=left;verticalAlign=top;spacingLeft=4;spacingRight=4;overflow=hidden;rotatable=0;points=[[0,0.5],[1,0.5]];portConstraint=eastwest;whiteSpace=wrap;html=1;" vertex="1" parent="YZBGLU8kvFxJoNcMDgSB-6">
          <mxGeometry y="52" width="160" height="26" as="geometry" />
        </mxCell>
        <mxCell id="YZBGLU8kvFxJoNcMDgSB-18" value="" style="endArrow=none;html=1;rounded=0;dashed=1;" edge="1" parent="YZBGLU8kvFxJoNcMDgSB-6">
          <mxGeometry width="50" height="50" relative="1" as="geometry">
            <mxPoint x="7" y="74.67000000000002" as="sourcePoint" />
            <mxPoint x="41.5" y="74.67000000000002" as="targetPoint" />
          </mxGeometry>
        </mxCell>
        <mxCell id="YZBGLU8kvFxJoNcMDgSB-10" value="tot_cred" style="text;align=left;verticalAlign=top;spacingLeft=4;spacingRight=4;overflow=hidden;rotatable=0;points=[[0,0.5],[1,0.5]];portConstraint=eastwest;whiteSpace=wrap;html=1;" vertex="1" parent="YZBGLU8kvFxJoNcMDgSB-6">
          <mxGeometry y="78" width="160" height="26" as="geometry" />
        </mxCell>
        <mxCell id="YZBGLU8kvFxJoNcMDgSB-19" value="" style="endArrow=none;html=1;rounded=0;dashed=1;" edge="1" parent="YZBGLU8kvFxJoNcMDgSB-6">
          <mxGeometry width="50" height="50" relative="1" as="geometry">
            <mxPoint x="6" y="100" as="sourcePoint" />
            <mxPoint x="50.5" y="100" as="targetPoint" />
          </mxGeometry>
        </mxCell>
        <mxCell id="YZBGLU8kvFxJoNcMDgSB-11" value="sec_course" style="rhombus;whiteSpace=wrap;html=1;fillColor=#f5f5f5;fontColor=#333333;strokeColor=#666666;" vertex="1" parent="1">
          <mxGeometry x="300" y="347" width="100" height="70" as="geometry" />
        </mxCell>
        <mxCell id="YZBGLU8kvFxJoNcMDgSB-12" value="" style="endArrow=none;html=1;rounded=0;startArrow=classic;startFill=1;entryX=0;entryY=0.5;entryDx=0;entryDy=0;" edge="1" parent="1" target="YZBGLU8kvFxJoNcMDgSB-14">
          <mxGeometry width="50" height="50" relative="1" as="geometry">
            <mxPoint x="250" y="381.58" as="sourcePoint" />
            <mxPoint x="300" y="381.58" as="targetPoint" />
          </mxGeometry>
        </mxCell>
        <mxCell id="YZBGLU8kvFxJoNcMDgSB-13" value="" style="endArrow=none;html=1;rounded=0;endFill=0;shape=link;exitX=1;exitY=0.5;exitDx=0;exitDy=0;entryX=0;entryY=0.5;entryDx=0;entryDy=0;" edge="1" parent="1" source="YZBGLU8kvFxJoNcMDgSB-14" target="YZBGLU8kvFxJoNcMDgSB-15">
          <mxGeometry width="50" height="50" relative="1" as="geometry">
            <mxPoint x="400" y="381.58" as="sourcePoint" />
            <mxPoint x="450" y="381.58" as="targetPoint" />
          </mxGeometry>
        </mxCell>
        <mxCell id="YZBGLU8kvFxJoNcMDgSB-14" value="" style="rhombus;whiteSpace=wrap;html=1;fillColor=none;fontColor=#333333;strokeColor=#666666;" vertex="1" parent="1">
          <mxGeometry x="293" y="341" width="112.5" height="82" as="geometry" />
        </mxCell>
        <mxCell id="Kj_qrx3dOx3RRFVEKRVv-1" value="标识性联系集" style="text;html=1;strokeColor=none;fillColor=none;align=center;verticalAlign=middle;whiteSpace=wrap;rounded=0;fontStyle=1" vertex="1" parent="1">
          <mxGeometry x="308.88" y="440" width="80.75" height="30" as="geometry" />
        </mxCell>
        <mxCell id="Kj_qrx3dOx3RRFVEKRVv-2" value="弱实体集" style="text;html=1;strokeColor=none;fillColor=none;align=center;verticalAlign=middle;whiteSpace=wrap;rounded=0;fontStyle=1" vertex="1" parent="1">
          <mxGeometry x="489.63" y="440" width="80.75" height="30" as="geometry" />
        </mxCell>
        <mxCell id="Kj_qrx3dOx3RRFVEKRVv-3" value="标识性实体集" style="text;html=1;strokeColor=none;fillColor=none;align=center;verticalAlign=middle;whiteSpace=wrap;rounded=0;fontStyle=1" vertex="1" parent="1">
          <mxGeometry x="129.62" y="440" width="80.75" height="30" as="geometry" />
        </mxCell>
      </root>
    </mxGraphModel>
  </diagram>
</mxfile>
